<?xml version="1.0" encoding="UTF-8" standalone="no"?>
<svg
   xmlns:dc="http://purl.org/dc/elements/1.1/"
   xmlns:cc="http://creativecommons.org/ns#"
   xmlns:rdf="http://www.w3.org/1999/02/22-rdf-syntax-ns#"
   xmlns:svg="http://www.w3.org/2000/svg"
   xmlns="http://www.w3.org/2000/svg"
   xmlns:sodipodi="http://sodipodi.sourceforge.net/DTD/sodipodi-0.dtd"
   xmlns:inkscape="http://www.inkscape.org/namespaces/inkscape"
   width="57"
   height="50"
   viewBox="0 0 57 50"
   fill="none"
   id="svg2"
   version="1.1"
   inkscape:version="0.91 r13725"
   sodipodi:docname="BC.svg">
  <metadata
     id="metadata30">
    <rdf:RDF>
      <cc:Work
         rdf:about="">
        <dc:format>image/svg+xml</dc:format>
        <dc:type
           rdf:resource="http://purl.org/dc/dcmitype/StillImage" />
      </cc:Work>
    </rdf:RDF>
  </metadata>
  <defs
     id="defs28" />
  <sodipodi:namedview
     pagecolor="#ffffff"
     bordercolor="#666666"
     borderopacity="1"
     objecttolerance="10"
     gridtolerance="10"
     guidetolerance="10"
     inkscape:pageopacity="0"
     inkscape:pageshadow="2"
     inkscape:window-width="1600"
     inkscape:window-height="844"
     id="namedview26"
     showgrid="false"
     inkscape:zoom="5.7536425"
     inkscape:cx="-17.386743"
     inkscape:cy="30.676292"
     inkscape:window-x="0"
     inkscape:window-y="30"
     inkscape:window-maximized="1"
     inkscape:current-layer="svg2" />
  <path
     d="M41.6903 2.05168L3.24372 16.0451C1.51025 16.676 0.613039 18.6001 1.24397 20.3336L1.45645 20.9174L4.17014 28.3732L10.8955 46.8509C11.5264 48.5843 13.4505 49.4815 15.184 48.8506L53.6305 34.8572C55.364 34.2263 56.2612 32.3022 55.6303 30.5687L48.905 12.091L46.1913 4.63521L45.9788 4.05143C45.3479 2.31795 43.4238 1.42074 41.6903 2.05168ZM54.1391 31.1115C54.471 32.0233 53.9996 33.0342 53.0878 33.366L14.6412 47.3595C13.7294 47.6913 12.7185 47.22 12.3866 46.3081L5.6613 27.8304L47.4138 12.6338L54.1391 31.1115ZM2.94761 20.3746L2.73513 19.7908C2.40325 18.879 2.87461 17.8681 3.78646 17.5363L42.233 3.54284C43.1449 3.21095 44.1557 3.68232 44.4876 4.59416L44.7001 5.17795L2.94761 20.3746Z"
     fill="white"
     id="path4"
     style="fill:#666666;fill-opacity:1" />
  <path
     d="M48.4453 32.5226L51.6893 31.3418L45.7192 14.9391L29.3164 20.9092L35.2865 37.3119L38.5305 36.1312L48.4453 32.5226ZM31.3503 21.8576L44.7707 16.973L49.6554 30.3934L48.162 30.937C47.8243 30.0509 47.0356 29.4336 46.0977 29.325L44.2217 29.0934C44.7788 28.3645 45.0476 27.4747 45.0228 26.4367C45.4206 25.9407 45.5399 25.2708 45.3157 24.6549L45.1347 24.1576C44.951 23.6529 44.5598 23.2625 44.0699 23.0718C43.2887 21.7536 41.7713 20.5724 38.8672 21.6294C38.7532 21.6709 38.6422 21.7164 38.5366 21.7649C38.0102 22.0097 37.4489 22.0823 36.9736 21.964C36.6908 21.8947 36.5341 21.8191 36.4488 21.7657C35.9921 21.4828 35.3355 21.704 35.1394 22.1976C35.0447 22.4339 35.057 22.7021 35.1707 22.9309C35.2621 23.1146 35.3763 23.3264 35.5148 23.5538C35.6917 23.8449 35.7287 23.9327 35.7344 23.9576C35.7372 23.9862 35.7283 24.0941 35.7212 24.1811C35.7097 24.312 35.6958 24.4732 35.6875 24.6848C35.6682 25.1376 35.7075 25.6097 35.8031 26.095C35.5563 26.5538 35.5112 27.098 35.6922 27.5953L35.8732 28.0926C36.0974 28.7084 36.6201 29.1447 37.2429 29.2692C37.889 30.0768 38.6634 30.5853 39.5539 30.7864L38.2049 32.1952C37.5919 32.8911 37.4083 33.8622 37.7247 34.7316L37.7261 34.7353L36.2349 35.278L31.3503 21.8576Z"
     fill="white"
     id="path6"
     style="fill:#666666;fill-opacity:1" />
  <path
     d="M10.2717 31.2183L16.9819 28.776C17.3942 28.6259 17.6062 28.1714 17.4562 27.7591C17.3061 27.3468 16.8515 27.1348 16.4392 27.2848L9.72898 29.7272C9.31667 29.8772 9.1047 30.3318 9.25477 30.7441C9.40483 31.1564 9.85941 31.3684 10.2717 31.2183Z"
     fill="white"
     id="path8"
     style="fill:#666666;fill-opacity:1" />
  <path
     d="M19.9641 27.6905L26.6743 25.2482C27.0866 25.0981 27.2986 24.6435 27.1485 24.2312C26.9985 23.8189 26.5439 23.6069 26.1316 23.757L19.4214 26.1993C19.0091 26.3494 18.7971 26.804 18.9472 27.2163C19.0972 27.6286 19.5518 27.8406 19.9641 27.6905Z"
     fill="white"
     id="path10"
     style="fill:#666666;fill-opacity:1" />
  <path
     d="M11.6282 34.9464L12.3737 34.675C12.786 34.5249 12.998 34.0703 12.848 33.658C12.6979 33.2457 12.2433 33.0338 11.831 33.1838L11.0854 33.4552C10.6731 33.6053 10.4611 34.0598 10.6112 34.4721C10.7613 34.8844 11.2159 35.0964 11.6282 34.9464Z"
     fill="white"
     id="path12"
     style="fill:#666666;fill-opacity:1" />
  <path
     d="M16.8478 33.0467C17.2601 32.8966 17.4721 32.442 17.322 32.0297C17.172 31.6174 16.7174 31.4055 16.3051 31.5555L14.8139 32.0983C14.4016 32.2483 14.1897 32.7029 14.3397 33.1152C14.4898 33.5275 14.9444 33.7395 15.3567 33.5894L16.8478 33.0467Z"
     fill="white"
     id="path14"
     style="fill:#666666;fill-opacity:1" />
  <path
     d="M19.8303 31.961L20.5759 31.6896C20.9882 31.5396 21.2002 31.085 21.0501 30.6727C20.9 30.2604 20.4455 30.0484 20.0332 30.1985L19.2876 30.4698C18.8753 30.6199 18.6633 31.0745 18.8134 31.4868C18.9634 31.8991 19.418 32.1111 19.8303 31.961Z"
     fill="white"
     id="path16"
     style="fill:#666666;fill-opacity:1" />
  <path
     d="M25.049 30.0618C25.4613 29.9117 25.6733 29.4572 25.5232 29.0449C25.3732 28.6326 24.9186 28.4206 24.5063 28.5707L23.0151 29.1134C22.6028 29.2635 22.3908 29.718 22.5409 30.1303C22.691 30.5426 23.1455 30.7546 23.5578 30.6046L25.049 30.0618Z"
     fill="white"
     id="path18"
     style="fill:#666666;fill-opacity:1" />
  <path
     d="M27.0376 27.8943C26.954 28.0843 26.9405 28.3003 27.0141 28.5024C27.0873 28.7037 27.2365 28.8605 27.423 28.953C27.6127 29.036 27.8372 29.0471 28.031 28.9766C28.2249 28.906 28.3889 28.7535 28.4817 28.5677C28.5643 28.3772 28.5758 28.1535 28.5052 27.9596C28.4347 27.7658 28.2818 27.601 28.0963 27.509C27.7201 27.3335 27.2131 27.518 27.0376 27.8943Z"
     fill="white"
     id="path20"
     style="fill:#666666;fill-opacity:1" />
  <path
     d="M16.7638 35.9478C15.4396 37.3923 15.4817 39.2177 15.8957 40.9769C15.4932 40.8313 15.0911 40.6846 14.6882 40.5383C13.7338 40.1916 13.0546 41.6268 14.0177 41.9762C14.9273 42.3063 15.8379 42.6368 16.7478 42.9676C17.392 43.2018 18.0546 42.6701 17.8286 41.9773C17.295 40.3418 16.6735 38.393 17.9855 36.9613C18.677 36.2073 17.4548 35.1947 16.7638 35.9478Z"
     fill="white"
     id="path22"
     style="fill:#666666;fill-opacity:1" />
  <path
     d="M27.6644 34.5068C26.5483 34.8202 25.2494 37.0534 23.9783 35.9599C23.656 35.6821 23.1262 35.7297 22.861 36.0635C22.041 37.0957 21.0002 38.5299 19.4507 37.7269C18.5402 37.2553 17.873 38.6955 18.7801 39.1649C20.7268 40.1729 22.3568 39.0536 23.6273 37.6193C24.0919 37.8564 24.5808 37.9562 25.1821 37.9544C25.9489 37.9522 27.8983 35.9357 28.1731 36.1202C29.0133 36.684 30.0381 35.4701 29.1867 34.8985C28.7137 34.5826 28.2575 34.3408 27.6644 34.5068Z"
     fill="white"
     id="path24"
     style="fill:#666666;fill-opacity:1" />
</svg>
