<svg width="47" height="47" viewBox="0 0 47 47" fill="none" xmlns="http://www.w3.org/2000/svg">
<path d="M5.03808 39.6821C4.65763 39.6821 4.34961 39.9905 4.34961 40.3706C4.34961 40.7511 4.65763 41.0594 5.03808 41.0594H9.42532C9.80542 41.0594 10.1138 40.7511 10.1138 40.3706C10.1138 39.9905 9.80542 39.6821 9.42532 39.6821H5.03808Z" fill="#666666"/>
<path d="M25.3002 41.0594H41.8584C42.2388 41.0594 42.5468 40.7511 42.5468 40.3706C42.5468 39.9905 42.2388 39.6821 41.8584 39.6821H25.3002C24.9197 39.6821 24.6113 39.9905 24.6113 40.3706C24.6113 40.7511 24.9197 41.0594 25.3002 41.0594Z" fill="#666666"/>
<path d="M20.4877 26.3847C20.2553 26.0831 19.8225 26.0279 19.5216 26.2599L13.8389 30.6414C13.7965 30.6744 13.7596 30.7113 13.727 30.7511C13.7227 30.7561 13.7184 30.7619 13.7144 30.7669C13.6994 30.7862 13.6857 30.8063 13.6728 30.8271C13.6703 30.8314 13.6675 30.8354 13.6649 30.8397C13.6502 30.8648 13.6373 30.8906 13.6262 30.9168C13.6241 30.9221 13.6223 30.9272 13.6201 30.9325C13.6112 30.9551 13.6036 30.9781 13.5972 31.0014C13.5957 31.0057 13.5939 31.0096 13.5929 31.0139L12.4078 35.5884V35.5887L12.2328 36.2632L11.3474 39.6816C11.2635 40.0054 11.3324 40.3428 11.5368 40.6078C11.7408 40.8728 12.0499 41.0252 12.3841 41.0266L21.3379 41.0592H21.3404C21.3759 41.0592 21.411 41.056 21.4458 41.0506C21.4565 41.0488 21.4673 41.046 21.4781 41.0438C21.5017 41.0388 21.525 41.0334 21.548 41.0262C21.5602 41.0223 21.5724 41.0173 21.5846 41.0126C21.6054 41.0047 21.6258 40.9961 21.6459 40.9861C21.6577 40.9803 21.6695 40.9742 21.681 40.9674C21.7011 40.956 21.7205 40.943 21.7395 40.9294C21.7463 40.9248 21.7538 40.9212 21.7606 40.9158L36.2577 29.7381C36.5162 29.9339 36.8285 30.0364 37.1445 30.0364C37.4571 30.0364 37.7723 29.9371 38.0388 29.7317L40.3107 27.9803C40.9515 27.4859 41.0709 26.5625 40.5768 25.9217L40.2354 25.4789L41.1258 24.7926C42.719 23.5641 43.0159 21.2688 41.7877 19.676L39.4738 16.675C38.2457 15.0818 35.9504 14.7853 34.3572 16.0134L33.4668 16.7001L33.1255 16.2576C32.8863 15.9471 32.5403 15.7484 32.1516 15.6982C31.7622 15.648 31.3774 15.752 31.0669 15.9912L28.7953 17.7429C28.2603 18.1556 28.0903 18.867 28.3359 19.4641L22.8952 23.6587C22.594 23.8911 22.538 24.3232 22.7704 24.6244C23.0024 24.926 23.4352 24.9819 23.736 24.7495L29.1348 20.5871L29.8043 21.4556L15.895 32.1804L15.2251 31.3119L20.3625 27.3507C20.6637 27.1183 20.7197 26.6859 20.4877 26.3847ZM12.7782 39.6507L13.3881 37.2959L15.2104 39.6593L12.7782 39.6507ZM33.3833 26.0971L33.4016 26.1207L33.8642 26.721L19.9544 37.4454L19.474 36.8219L33.3833 26.0971ZM18.6327 35.7314L18.0576 34.9852L31.9673 24.2604L32.5424 25.0066L18.6327 35.7314ZM21.4651 39.4047L20.7957 38.5362L34.705 27.8115L35.3749 28.6799L21.4651 39.4047ZM35.1981 17.1042C36.1899 16.3397 37.6189 16.5244 38.3834 17.5159L40.6969 20.5168C41.4614 21.5083 41.2767 22.9373 40.2853 23.7018L39.3949 24.3884L34.3081 17.7906L35.1981 17.1042ZM29.62 18.9606C29.5895 18.9212 29.5967 18.8641 29.6361 18.8337L31.9081 17.082C31.9278 17.0669 31.9501 17.0608 31.9748 17.0641C31.9995 17.0673 32.02 17.0788 32.035 17.0985L39.4863 26.7622C39.5168 26.802 39.5093 26.8591 39.4699 26.8895L37.1979 28.6412C37.1584 28.6713 37.1014 28.6642 37.0709 28.6247L36.8859 28.3848L36.8623 28.3543L35.3759 26.4266C35.3759 26.4263 35.3756 26.4259 35.3752 26.4252L34.0535 24.7112L29.62 18.9606ZM30.6452 22.5461L30.8008 22.7476L31.1264 23.17L17.2167 33.8944L16.7358 33.2708L30.6452 22.5461ZM17.9625 37.1173L19.2843 38.8317H19.2846L19.9358 39.6769L16.9542 39.6658L13.8252 35.6077L14.5732 32.7215L17.9625 37.1173Z" fill="#666666"/>
<path d="M5.0278 2.64307C3.91333 2.64307 3.00684 3.54956 3.00684 4.66403C3.00684 5.77814 3.91333 6.68463 5.0278 6.68463C6.14191 6.68463 7.0484 5.77814 7.0484 4.66403C7.0484 3.54956 6.14191 2.64307 5.0278 2.64307ZM5.0278 5.30732C4.6728 5.30732 4.38414 5.01866 4.38414 4.66403C4.38414 4.30903 4.6728 4.02038 5.0278 4.02038C5.38243 4.02038 5.67145 4.30903 5.67145 4.66403C5.67145 5.01866 5.38243 5.30732 5.0278 5.30732Z" fill="#666666"/>
<path d="M10.1723 2.64307C9.05786 2.64307 8.15137 3.54956 8.15137 4.66403C8.15137 5.77814 9.05786 6.68463 10.1723 6.68463C11.2864 6.68463 12.1929 5.77814 12.1929 4.66403C12.1929 3.54956 11.2864 2.64307 10.1723 2.64307ZM10.1723 5.30732C9.81733 5.30732 9.52868 5.01866 9.52868 4.66403C9.52868 4.30903 9.81733 4.02038 10.1723 4.02038C10.527 4.02038 10.816 4.30903 10.816 4.66403C10.816 5.01866 10.527 5.30732 10.1723 5.30732Z" fill="#666666"/>
<path d="M15.3178 2.64307C14.2034 2.64307 13.2969 3.54956 13.2969 4.66403C13.2969 5.77814 14.2034 6.68463 15.3178 6.68463C16.4319 6.68463 17.3384 5.77814 17.3384 4.66403C17.3384 3.54956 16.4319 2.64307 15.3178 2.64307ZM15.3178 5.30732C14.9628 5.30732 14.6742 5.01866 14.6742 4.66403C14.6742 4.30903 14.9628 4.02038 15.3178 4.02038C15.6725 4.02038 15.9615 4.30903 15.9615 4.66403C15.9615 5.01866 15.6725 5.30732 15.3178 5.30732Z" fill="#666666"/>
<path d="M46.3114 13.2682C46.6915 13.2682 46.9999 12.9598 46.9999 12.5794V3.03037C46.9999 1.35938 45.6405 0 43.9695 0H3.03073C1.35974 0 0 1.35938 0 3.03037V43.9695C0 45.6405 1.35974 46.9999 3.03073 46.9999H43.9695C45.6405 46.9999 46.9999 45.6405 46.9999 43.9695V16.8895C46.9999 16.5091 46.6919 16.201 46.3114 16.201C45.931 16.201 45.623 16.5091 45.623 16.8895V43.9692C45.623 44.8811 44.8811 45.6226 43.9695 45.6226H3.03073C2.11885 45.6226 1.37731 44.8811 1.37731 43.9692V9.36685H45.6226V12.5794C45.6226 12.9598 45.931 13.2682 46.3114 13.2682ZM1.37731 7.98954V3.03037C1.37731 2.11885 2.11885 1.37731 3.03073 1.37731H43.9695C44.8811 1.37731 45.623 2.11885 45.623 3.03037V7.98954H1.37731Z" fill="#666666"/>
</svg>
