<svg width="250" height="250" viewBox="0 0 250 250" fill="none" xmlns="http://www.w3.org/2000/svg">
<path d="M125 250C191.069 250 244.629 196.44 244.629 130.371C244.629 64.3019 191.069 10.7422 125 10.7422C58.9308 10.7422 5.37109 64.3019 5.37109 130.371C5.37109 196.44 58.9308 250 125 250Z" fill="#1A2B63"/>
<path d="M105.857 185.022C112.034 185.022 117.725 188.128 121.08 193.333C121.162 193.461 121.301 193.543 121.453 193.555C121.465 193.556 121.478 193.556 121.49 193.556C121.63 193.556 121.763 193.497 121.856 193.391C126.885 187.702 134.116 184.439 141.693 184.439C144.275 184.439 146.77 184.817 149.13 185.51L140.416 163.174H109.583L100.774 185.754C102.388 185.28 104.093 185.022 105.857 185.022Z" fill="#D9EAFC"/>
<path d="M113.604 163.173H109.584L100.775 185.753C102.146 185.352 103.586 185.116 105.069 185.05L113.604 163.173Z" fill="#AEC1ED"/>
<path d="M96.478 208.102C96.4976 208.23 96.5674 208.346 96.6724 208.423C96.7563 208.485 96.8579 208.518 96.9609 208.518C96.9863 208.518 97.0122 208.516 97.0376 208.512C98.7808 208.235 100.531 208.094 102.24 208.094C110.589 208.094 118.554 211.231 124.667 216.928C124.761 217.015 124.881 217.059 125 217.059C125.12 217.059 125.24 217.015 125.334 216.928C131.447 211.231 139.412 208.094 147.761 208.094C149.469 208.094 151.22 208.235 152.963 208.512C152.989 208.516 153.015 208.518 153.04 208.518C153.143 208.518 153.245 208.485 153.329 208.423C153.434 208.346 153.503 208.23 153.523 208.102C154.425 202.028 156.711 196.276 160.14 191.256C155.317 186.729 148.832 183.951 141.694 183.951C133.648 183.951 126.431 187.479 121.491 193.067C118.182 187.935 112.419 184.533 105.858 184.533C99.5649 184.533 94.0063 187.664 90.6426 192.449C93.6357 197.18 95.6465 202.503 96.478 208.102Z" fill="#AEC1ED"/>
<path d="M96.9609 208.03C94.0225 188.25 76.9731 173.073 56.3755 173.073C42.0762 173.073 29.4902 180.39 22.1445 191.48C33.3916 210.37 49.6958 225.892 69.1875 236.192C71.272 221.756 82.5898 210.313 96.9609 208.03Z" fill="#445EA0"/>
<path d="M60.4731 178.119C70.938 178.119 80.5308 181.831 88.0244 188C80.4985 178.886 69.1187 173.073 56.3755 173.073C42.0762 173.073 29.4902 180.39 22.1445 191.48C23.1147 193.109 24.1255 194.712 25.1699 196.291C33.0405 185.292 45.916 178.119 60.4731 178.119Z" fill="#293D7C"/>
<path d="M193.625 173.073C173.027 173.073 155.978 188.25 153.039 208.03C167.41 210.313 178.728 221.756 180.812 236.192C200.304 225.892 216.608 210.37 227.855 191.48C220.51 180.39 207.924 173.073 193.625 173.073Z" fill="#445EA0"/>
<path d="M196.106 173.149C195.285 173.101 194.458 173.073 193.624 173.073C173.026 173.073 155.977 188.25 153.038 208.03C154.569 208.273 156.063 208.626 157.518 209.07C161.601 190.379 176.954 175.906 196.106 173.149Z" fill="#293D7C"/>
<path d="M147.759 207.606C138.962 207.606 130.965 211.012 125 216.57C119.034 211.012 111.037 207.606 102.24 207.606C85.4258 207.606 71.5171 220.031 69.1855 236.199C85.8496 245.006 104.84 250 125 250C145.159 250 164.149 245.006 180.813 236.199C178.482 220.031 164.573 207.606 147.759 207.606Z" fill="#293D7C"/>
<path d="M109.222 211.758C113.829 211.758 118.225 212.654 122.249 214.279C116.671 210.095 109.749 207.606 102.24 207.606C85.4258 207.606 71.5171 220.031 69.1855 236.199C71.1499 237.237 73.1475 238.22 75.1743 239.15C78.5957 223.488 92.5332 211.758 109.222 211.758Z" fill="#1A2B63"/>
<path d="M136 163.174H128.617L129.559 170.625C129.813 172.632 131.647 174.052 133.651 173.799C135.658 173.545 137.079 171.713 136.825 169.707L136 163.174Z" fill="#AEC1ED"/>
<path d="M114 163.173L112.063 178.496C111.81 180.502 113.231 182.334 115.238 182.588C115.394 182.607 115.548 182.617 115.702 182.617C117.519 182.617 119.097 181.264 119.331 179.414L121.383 163.173H114V163.173V163.173Z" fill="#AEC1ED"/>
<path d="M87.4551 95.5649C87.4551 91.583 87.6045 87.6118 87.8838 83.6694C76.1357 90.2852 68.042 105.023 68.042 122.086C68.042 131.098 70.2827 139.692 74.5215 146.94C74.9194 147.621 75.6396 148.01 76.3877 148.01C76.6611 148.01 76.938 147.958 77.2041 147.849C82.7749 145.572 88.728 144.402 94.9014 144.353C90.0269 129.349 87.4551 112.593 87.4551 95.5649Z" fill="#FE3745"/>
<path d="M73.5791 122.086C73.5791 107.993 79.104 95.4912 87.6455 87.8369C87.7109 86.4448 87.7866 85.0552 87.8848 83.6694C76.1367 90.2852 68.043 105.023 68.043 122.086C68.043 131.098 70.2837 139.692 74.5225 146.94C74.9204 147.621 75.6406 148.01 76.3887 148.01C76.6621 148.01 76.939 147.958 77.2051 147.849C78.123 147.474 79.0557 147.14 79.9937 146.825C75.7979 139.601 73.5791 131.051 73.5791 122.086Z" fill="#B7092B"/>
<path d="M162.116 83.6694C162.395 87.6123 162.544 91.5835 162.544 95.5649C162.544 112.593 159.973 129.349 155.098 144.353C161.271 144.402 167.224 145.572 172.795 147.849C173.061 147.958 173.338 148.01 173.611 148.01C174.36 148.01 175.08 147.62 175.478 146.94C179.717 139.692 181.957 131.098 181.957 122.086C181.958 105.023 173.864 90.2852 162.116 83.6694Z" fill="#FE3745"/>
<path d="M106.303 149.963V161.22C106.303 162.563 107.401 163.662 108.744 163.662H141.255C142.598 163.662 143.697 162.563 143.697 161.22V149.963H106.303Z" fill="#FE3745"/>
<path d="M114.607 161.22V149.963H106.303V161.22C106.303 162.563 107.401 163.662 108.744 163.662H117.048C115.706 163.662 114.607 162.563 114.607 161.22Z" fill="#B7092B"/>
<path d="M154.714 44.1006H95.2856C89.8394 59.8003 86.9668 77.4712 86.9668 95.5649C86.9668 114.375 90.0864 132.863 95.9878 149.032C96.2993 149.884 97.1099 150.452 98.0176 150.452H151.982C152.89 150.452 153.701 149.884 154.012 149.032C159.913 132.863 163.033 114.375 163.033 95.5649C163.033 77.4712 160.161 59.8008 154.714 44.1006Z" fill="#EEF6FF"/>
<path d="M102.908 149.032C97.0059 132.863 93.8867 114.375 93.8867 95.5649C93.8867 77.4712 96.7593 59.8003 102.206 44.1006H95.2856C89.8394 59.8003 86.9668 77.4712 86.9668 95.5649C86.9668 114.375 90.0864 132.863 95.9878 149.032C96.2993 149.884 97.1099 150.452 98.0176 150.452H104.938C104.03 150.452 103.219 149.884 102.908 149.032Z" fill="#D9EAFC"/>
<path d="M110.928 44.1006V52.2031C110.928 53.5459 112.026 54.6445 113.369 54.6445H136.632C137.975 54.6445 139.073 53.5459 139.073 52.2031V44.1006H110.928Z" fill="#EA2A3D"/>
<path d="M116.464 52.2031V44.1006H110.928V52.2031C110.928 53.5459 112.026 54.6445 113.369 54.6445H118.905C117.562 54.6445 116.464 53.5459 116.464 52.2031Z" fill="#B7092B"/>
<path d="M125 0C124.518 0 124.037 0.160645 123.64 0.481445C112.733 9.31397 103.545 22.7124 97.0723 39.2285C96.3838 40.9858 95.7368 42.7778 95.1162 44.5889H154.883C154.263 42.7778 153.616 40.9858 152.927 39.2285C146.454 22.7124 137.267 9.31397 126.359 0.481445C125.963 0.160645 125.482 0 125 0Z" fill="#FE3745"/>
<path d="M128.46 2.25977C127.767 1.64893 127.067 1.05469 126.36 0.481445C125.963 0.160645 125.482 0 125 0C124.518 0 124.037 0.160645 123.64 0.481445C112.733 9.31397 103.545 22.7124 97.0723 39.2285C96.3838 40.9858 95.7368 42.7778 95.1162 44.5889H102.036C102.657 42.7778 103.304 40.9858 103.992 39.2285C110.046 23.7837 118.473 11.0679 128.46 2.25977Z" fill="#B7092B"/>
<path d="M125 113.257C138.759 113.257 149.912 102.103 149.912 88.3447C149.912 74.5861 138.759 63.4326 125 63.4326C111.241 63.4326 100.088 74.5861 100.088 88.3447C100.088 102.103 111.241 113.257 125 113.257Z" fill="#445EA0"/>
<path d="M125 104.327C133.827 104.327 140.982 97.1713 140.982 88.3447C140.982 79.5181 133.827 72.3628 125 72.3628C116.174 72.3628 109.019 79.5181 109.019 88.3447C109.019 97.1713 116.174 104.327 125 104.327Z" fill="#69CDFF"/>
<path d="M114.877 88.3457C114.877 96.1714 120.503 102.679 127.93 104.056C126.98 104.231 126.002 104.328 125 104.328C116.173 104.328 109.019 97.1724 109.019 88.3457C109.019 79.519 116.174 72.3638 125 72.3638C126.001 72.3638 126.98 72.4604 127.93 72.6362C120.503 74.0127 114.877 80.52 114.877 88.3457Z" fill="#52BBEF"/>
<path d="M53.7773 87.2739C53.2173 87.2739 52.7124 86.9365 52.498 86.4189C49.772 79.8374 47.7622 77.8281 41.1807 75.1021C40.6631 74.8877 40.3262 74.3828 40.3262 73.8228C40.3262 73.2627 40.6636 72.7578 41.1807 72.5435C47.7627 69.8164 49.772 67.8066 52.498 61.2256C52.7124 60.708 53.2173 60.3706 53.7773 60.3706C54.3374 60.3706 54.8423 60.708 55.0566 61.2256C57.7832 67.8066 59.793 69.8164 66.3745 72.5435C66.8921 72.7578 67.2295 73.2627 67.2295 73.8228C67.2295 74.3828 66.8921 74.8882 66.3745 75.1021C59.793 77.8276 57.7832 79.8374 55.0566 86.4189C54.8423 86.9365 54.3374 87.2739 53.7773 87.2739Z" fill="#FFD00D"/>
<path d="M55.2661 83.6509C52.54 77.0693 50.5303 75.0601 43.9487 72.334C43.6235 72.1997 43.3701 71.9497 43.2261 71.644C42.5942 71.9399 41.9204 72.2368 41.1807 72.5435C40.6631 72.7578 40.3262 73.2627 40.3262 73.8227C40.3262 74.3828 40.6636 74.8882 41.1807 75.1021C47.7622 77.8281 49.772 79.8374 52.498 86.4189C52.7124 86.9365 53.2173 87.2739 53.7773 87.2739C54.3374 87.2739 54.8423 86.9365 55.0566 86.4189C55.3628 85.6792 55.6602 85.0054 55.9556 84.374C55.6504 84.23 55.4009 83.9761 55.2661 83.6509Z" fill="#FFAF10"/>
<path d="M200.913 98.3418C200.42 98.3418 199.977 98.0454 199.788 97.5903C197.392 91.8052 195.625 90.0391 189.84 87.6431C189.386 87.4551 189.089 87.0107 189.089 86.5186C189.089 86.0259 189.385 85.5825 189.84 85.394C195.626 82.9971 197.392 81.2305 199.788 75.4458C199.977 74.9907 200.42 74.6943 200.913 74.6943C201.405 74.6943 201.849 74.9907 202.037 75.4458C204.434 81.231 206.2 82.9971 211.986 85.394C212.44 85.5825 212.737 86.0259 212.737 86.5186C212.737 87.0107 212.44 87.4546 211.985 87.6431C206.2 90.0391 204.434 91.8052 202.037 97.5903C201.849 98.0449 201.405 98.3418 200.913 98.3418Z" fill="white"/>
<path d="M202.222 95.1572C199.825 89.3721 198.059 87.606 192.273 85.2095C191.988 85.0913 191.765 84.8721 191.638 84.603C191.083 84.8628 190.49 85.124 189.84 85.3936C189.386 85.582 189.089 86.0254 189.089 86.5181C189.089 87.0103 189.385 87.4541 189.84 87.6426C195.626 90.0386 197.392 91.8047 199.788 97.5898C199.977 98.0449 200.42 98.3413 200.913 98.3413C201.405 98.3413 201.849 98.0449 202.037 97.5898C202.306 96.9399 202.567 96.3472 202.828 95.792C202.56 95.666 202.34 95.4429 202.222 95.1572Z" fill="#D9EAFC"/>
<path d="M188.217 46.9097C187.644 46.9097 187.126 46.564 186.907 46.0342C184.115 39.293 182.057 37.2349 175.315 34.4434C174.786 34.2241 174.44 33.7065 174.44 33.1333C174.44 32.5591 174.786 32.0425 175.315 31.8228C182.057 29.0298 184.115 26.9717 186.907 20.2314C187.126 19.7012 187.644 19.3555 188.217 19.3555C188.791 19.3555 189.308 19.7012 189.528 20.2314C192.32 26.9722 194.378 29.0303 201.12 31.8228C201.649 32.0425 201.995 32.5591 201.995 33.1333C201.995 33.7065 201.649 34.2241 201.119 34.4434C194.378 37.2349 192.32 39.2935 189.527 46.0342C189.308 46.564 188.791 46.9097 188.217 46.9097Z" fill="#FF9518"/>
<path d="M189.743 43.1992C186.95 36.4585 184.892 34.4004 178.151 31.6084C177.818 31.4707 177.559 31.2148 177.411 30.9019C176.764 31.2051 176.073 31.5093 175.315 31.8228C174.786 32.0425 174.44 32.5591 174.44 33.1333C174.44 33.7065 174.786 34.2241 175.315 34.4434C182.057 37.2354 184.115 39.2935 186.907 46.0342C187.126 46.564 187.644 46.9097 188.217 46.9097C188.791 46.9097 189.308 46.564 189.528 46.0342C189.842 45.2764 190.146 44.5859 190.449 43.9395C190.136 43.792 189.88 43.5322 189.743 43.1992Z" fill="#EF8318"/>
</svg>
