<svg width="250" height="250" viewBox="0 0 250 250" fill="none" xmlns="http://www.w3.org/2000/svg">
<g clip-path="url(#clip0)">
<path d="M125 250C191.069 250 244.629 196.44 244.629 130.371C244.629 64.3019 191.069 10.7422 125 10.7422C58.9308 10.7422 5.37109 64.3019 5.37109 130.371C5.37109 196.44 58.9308 250 125 250Z" fill="#1A2B63"/>
<path d="M53.7773 87.2739C53.2173 87.2739 52.7124 86.9365 52.498 86.4189C49.772 79.8374 47.7622 77.8281 41.1807 75.1021C40.6631 74.8877 40.3262 74.3828 40.3262 73.8228C40.3262 73.2627 40.6636 72.7578 41.1807 72.5435C47.7627 69.8164 49.772 67.8066 52.498 61.2256C52.7124 60.708 53.2173 60.3706 53.7773 60.3706C54.3374 60.3706 54.8423 60.708 55.0566 61.2256C57.7832 67.8066 59.793 69.8164 66.3745 72.5435C66.8921 72.7578 67.2295 73.2627 67.2295 73.8228C67.2295 74.3828 66.8921 74.8882 66.3745 75.1021C59.793 77.8276 57.7832 79.8374 55.0566 86.4189C54.8423 86.9365 54.3374 87.2739 53.7773 87.2739Z" fill="#FFD00D"/>
<path d="M55.2661 83.6509C52.54 77.0693 50.5303 75.0601 43.9487 72.334C43.6235 72.1997 43.3701 71.9497 43.2261 71.644C42.5942 71.9399 41.9204 72.2368 41.1807 72.5435C40.6631 72.7578 40.3262 73.2627 40.3262 73.8227C40.3262 74.3828 40.6636 74.8882 41.1807 75.1021C47.7622 77.8281 49.772 79.8374 52.498 86.4189C52.7124 86.9365 53.2173 87.2739 53.7773 87.2739C54.3374 87.2739 54.8423 86.9365 55.0566 86.4189C55.3628 85.6792 55.6602 85.0054 55.9556 84.374C55.6504 84.23 55.4009 83.9761 55.2661 83.6509Z" fill="#FFAF10"/>
<path d="M200.913 98.3418C200.42 98.3418 199.977 98.0454 199.788 97.5903C197.392 91.8052 195.625 90.0391 189.84 87.6431C189.386 87.4551 189.089 87.0107 189.089 86.5186C189.089 86.0259 189.385 85.5825 189.84 85.394C195.626 82.9971 197.392 81.2305 199.788 75.4458C199.977 74.9907 200.42 74.6943 200.913 74.6943C201.405 74.6943 201.849 74.9907 202.037 75.4458C204.434 81.231 206.2 82.9971 211.986 85.394C212.44 85.5825 212.737 86.0259 212.737 86.5186C212.737 87.0107 212.44 87.4546 211.985 87.6431C206.2 90.0391 204.434 91.8052 202.037 97.5903C201.849 98.0449 201.405 98.3418 200.913 98.3418Z" fill="white"/>
<path d="M202.222 95.1572C199.825 89.3721 198.059 87.606 192.273 85.2095C191.988 85.0913 191.765 84.8721 191.638 84.603C191.083 84.8628 190.49 85.124 189.84 85.3936C189.386 85.582 189.089 86.0254 189.089 86.5181C189.089 87.0103 189.385 87.4541 189.84 87.6426C195.626 90.0386 197.392 91.8047 199.788 97.5898C199.977 98.0449 200.42 98.3413 200.913 98.3413C201.405 98.3413 201.849 98.0449 202.037 97.5898C202.306 96.9399 202.567 96.3472 202.828 95.792C202.56 95.666 202.34 95.4429 202.222 95.1572Z" fill="#D9EAFC"/>
<path d="M188.217 46.9097C187.644 46.9097 187.126 46.564 186.907 46.0342C184.115 39.293 182.057 37.2349 175.315 34.4434C174.786 34.2241 174.44 33.7065 174.44 33.1333C174.44 32.5591 174.786 32.0425 175.315 31.8228C182.057 29.0298 184.115 26.9717 186.907 20.2314C187.126 19.7012 187.644 19.3555 188.217 19.3555C188.791 19.3555 189.308 19.7012 189.528 20.2314C192.32 26.9722 194.378 29.0303 201.12 31.8228C201.649 32.0425 201.995 32.5591 201.995 33.1333C201.995 33.7065 201.649 34.2241 201.119 34.4434C194.378 37.2349 192.32 39.2935 189.527 46.0342C189.308 46.564 188.791 46.9097 188.217 46.9097Z" fill="#FF9518"/>
<path d="M189.743 43.1992C186.95 36.4585 184.892 34.4004 178.151 31.6084C177.818 31.4707 177.559 31.2148 177.411 30.9019C176.764 31.2051 176.073 31.5093 175.315 31.8228C174.786 32.0425 174.44 32.5591 174.44 33.1333C174.44 33.7065 174.786 34.2241 175.315 34.4434C182.057 37.2354 184.115 39.2935 186.907 46.0342C187.126 46.564 187.644 46.9097 188.217 46.9097C188.791 46.9097 189.308 46.564 189.528 46.0342C189.842 45.2764 190.146 44.5859 190.449 43.9395C190.136 43.792 189.88 43.5322 189.743 43.1992Z" fill="#EF8318"/>
<g clip-path="url(#clip1)">
<path d="M214.543 99.2583C214.067 100.258 213.603 101.328 213.151 102.47L196.413 142.871L177.033 115.069L186.776 91.5136C187.205 90.443 187.633 89.408 187.99 88.4443L214.543 99.2583Z" fill="#E64C3C"/>
<path d="M160.759 86.8385C160.402 93.9765 159.653 101.114 158.582 108.252L133.671 112.285C133.142 103.256 133.309 94.2001 134.17 85.1968V85.1611L160.759 86.8385Z" fill="#4482C3"/>
<path d="M100.336 43.154C100.336 43.154 103.477 70.9313 93.0557 73.3546C82.6344 75.7779 72.5342 49.6852 72.5342 49.6852L73.2123 31.4121C76.1745 32.4828 76.5029 20.2341 79.822 19.449C83.1411 18.6638 89.4511 29.3778 91.6281 27.0937L100.336 43.154Z" fill="#FDD7AD"/>
<path d="M119.109 123.42L111.793 147.19L109.794 145.477L91.1999 129.345L72.5342 49.6855C72.5342 49.6855 78.4587 59.286 88.88 56.8234C99.3014 54.3608 100.336 43.1543 100.336 43.1543L119.109 123.42Z" fill="#E64C3C"/>
<path d="M109.794 145.477L91.1999 129.345L72.5342 49.6855C72.5342 49.6855 78.4587 59.2861 88.88 56.8235L109.794 145.477Z" fill="#C03A2B"/>
<path d="M76.3892 131.379L76.1036 175.741L47.9445 165.32L19.4642 96.6174C19.0978 95.7421 19.0952 94.7569 19.4568 93.8795C19.8185 93.0022 20.5146 92.305 21.3914 91.9421L51.0852 79.6648C52.9084 78.9188 54.9926 79.7779 55.7605 81.5921L58.4729 88.1947L59.8292 91.4781L61.1854 94.7616L63.9335 101.364L65.2897 104.648L66.6816 107.967L69.394 114.569L70.7502 117.853L72.1064 121.136L76.2464 131.058L76.3892 131.379Z" fill="#F0C419"/>
<path d="M61.1847 94.7617L44.7317 101.614C44.2873 101.783 43.8153 101.868 43.3398 101.864C41.6518 101.844 40.2085 100.644 39.8807 98.9882C39.553 97.3321 40.4304 95.6729 41.9836 95.0115L58.4723 88.1948L59.8285 91.4783L61.1847 94.7617Z" fill="#B19046"/>
<path d="M66.6813 107.967L56.7595 112.071C56.3284 112.243 55.8674 112.328 55.4033 112.321C53.7153 112.301 52.272 111.101 51.9442 109.445C51.6165 107.789 52.4939 106.13 54.0471 105.469L63.9331 101.364L65.2894 104.648L66.6813 107.967Z" fill="#B19046"/>
<path d="M72.106 121.136L55.6531 127.989C55.2202 128.154 54.7604 128.239 54.2969 128.238C52.6022 128.235 51.1435 127.041 50.8062 125.38C50.4688 123.719 51.3459 122.05 52.905 121.386L69.3936 114.569L70.7498 117.853L72.106 121.136Z" fill="#B19046"/>
<path d="M226 229.643C226 239.484 223.368 248.923 218.683 255.882C213.998 262.84 207.643 266.75 201.017 266.75H43.9828C30.1852 266.75 19 250.137 19 229.643C19 209.149 30.1852 192.536 43.9828 192.536C46.3999 192.526 48.805 193.044 51.1207 194.073C51.3998 173.191 59.5263 154.299 72.1662 145.146C84.8061 135.994 99.8319 138.122 111.079 150.658C118.669 120.684 139.604 103.06 160.817 108.789C182.029 114.517 197.448 141.959 197.448 173.982C197.458 180.577 196.796 187.136 195.485 193.437C197.302 192.841 199.157 192.539 201.017 192.536C207.643 192.536 213.998 196.445 218.683 203.404C223.368 210.363 226 219.802 226 229.643Z" fill="#E6E7E8"/>
<path d="M91.6288 27.0939C89.3781 29.6646 86.4455 31.5455 83.1703 32.5187C79.8132 33.0935 76.362 32.71 73.2129 31.4123L73.891 12.5682C73.9623 10.4704 75.4209 8.67632 77.46 8.17838C77.8004 8.10747 78.1472 8.07159 78.495 8.07131C80.2233 8.06655 81.8142 9.01285 82.635 10.5339L91.6288 27.0939Z" fill="#2C2F38"/>
<path d="M160.76 86.838C151.862 87.287 142.942 86.7243 134.171 85.1605C134.706 79.3431 135.491 73.5971 136.419 67.8511C144.45 68.3507 152.551 68.8504 160.795 69.35C161.105 75.1756 161.093 81.0137 160.76 86.838Z" fill="#95A5A5"/>
<path d="M136.419 67.8514C136.419 67.8514 122.064 54.8354 135.08 40.4774C145.901 28.5428 150.202 20.3949 149.927 12.6716C149.898 11.948 150.315 11.2802 150.977 10.9879C151.64 10.6956 152.414 10.8382 152.929 11.3475C161.719 19.9523 181.548 43.9715 160.584 69.3432" fill="#805333"/>
<path d="M153.497 60.4637C152.145 60.4637 150.909 59.6999 150.305 58.4908C149.7 57.2817 149.83 55.8348 150.642 54.7534C153.769 50.4675 155.048 45.1069 154.193 39.8708C153.83 38.6277 154.169 37.2859 155.079 36.3644C155.989 35.443 157.326 35.0865 158.574 35.4329C159.821 35.7793 160.783 36.7742 161.088 38.0327C162.519 45.3931 160.797 53.0161 156.341 59.0468C155.667 59.9385 154.614 60.4629 153.497 60.4637Z" fill="#603E26"/>
<path d="M107.438 193.586C106.008 193.586 104.716 192.732 104.155 191.416C103 188.718 102.405 185.814 102.406 182.879C102.4 172.849 109.358 164.158 119.147 161.969C128.936 159.78 138.932 164.679 143.2 173.757C144.039 175.541 143.274 177.668 141.49 178.507C139.706 179.347 137.579 178.582 136.74 176.798C134.412 171.77 129.361 168.566 123.82 168.603C115.936 168.603 109.544 174.995 109.544 182.879C109.543 184.852 109.944 186.805 110.722 188.618C111.093 189.489 111.103 190.471 110.75 191.35C110.396 192.228 109.708 192.93 108.838 193.301C108.396 193.49 107.919 193.587 107.438 193.586Z" fill="#BDC3C7"/>
<path d="M161.759 184.057C160.361 184.058 159.091 183.241 158.511 181.969C156.765 178.179 152.977 175.748 148.804 175.742C146.394 175.736 144.056 176.558 142.18 178.069C140.638 179.297 138.392 179.044 137.163 177.503C135.934 175.961 136.188 173.716 137.729 172.487C140.867 169.962 144.776 168.591 148.804 168.604C155.773 168.61 162.101 172.673 165.007 179.007C165.511 180.112 165.418 181.397 164.761 182.419C164.105 183.44 162.973 184.057 161.759 184.057Z" fill="#BDC3C7"/>
<path d="M68.9654 165.034C66.9944 165.034 65.3965 163.437 65.3965 161.466C65.3965 148.339 78.0056 143.978 78.5446 143.803C80.4171 143.174 82.4448 144.182 83.0736 146.055C83.7023 147.927 82.6941 149.955 80.8216 150.584C76.1061 152.192 72.8314 156.492 72.5344 161.466C72.5344 163.437 70.9365 165.034 68.9654 165.034Z" fill="#BDC3C7"/>
<path d="M129.638 140.051C129.344 140.053 129.052 140.017 128.767 139.944C126.855 139.465 125.693 137.527 126.172 135.615C128.569 125.756 137.337 118.771 147.483 118.638C149.454 118.633 151.056 120.227 151.06 122.198C151.065 124.169 149.471 125.771 147.5 125.776C140.64 125.946 134.742 130.687 133.1 137.35C132.702 138.938 131.275 140.051 129.638 140.051Z" fill="#BDC3C7"/>
<path d="M225.786 79.7719C225.902 80.3448 225.743 80.939 225.357 81.378C220.794 86.7033 217.141 92.7445 214.543 99.2585C213.282 100.199 211.853 100.889 210.332 101.293C206.435 102.323 202.302 101.983 198.626 100.329C198.59 100.329 198.59 100.293 198.554 100.293C194.749 98.8735 191.556 96.1731 189.525 92.6559C188.766 91.3549 188.247 89.9286 187.99 88.4445C190.762 81.9446 192.461 75.0382 193.022 67.9944C193.051 67.4052 193.373 66.8694 193.879 66.5668L213.901 54.0754L219.076 50.8276L220.468 56.7878L225.786 79.7719Z" fill="#F0C419"/>
<path d="M219.076 50.8276L208.191 77.2023H208.155L198.626 100.329C198.59 100.329 198.59 100.293 198.554 100.293C194.749 98.8735 191.556 96.1731 189.525 92.6559C188.766 91.3549 188.247 89.9286 187.99 88.4445C190.762 81.9446 192.461 75.0382 193.022 67.9944C193.051 67.4052 193.373 66.8694 193.879 66.5668L213.901 54.0754L219.076 50.8276Z" fill="#F3D55B"/>
<path d="M220.468 56.7878L212.795 75.275C212.247 76.6078 210.952 77.4806 209.511 77.4878C209.056 77.4826 208.607 77.3854 208.191 77.2023H208.155C206.817 76.6611 205.942 75.362 205.942 73.9188C205.951 73.4412 206.048 72.9694 206.228 72.5269L213.901 54.0754L219.076 50.8276L220.468 56.7878Z" fill="#E57E25"/>
</g>
<path d="M96.8164 208.856C93.8779 189.076 76.8286 173.9 56.231 173.9C41.9316 173.9 29.3457 181.216 22 192.307C33.2471 211.197 49.5513 226.718 69.043 237.019C71.1274 222.583 82.4453 211.14 96.8164 208.856Z" fill="#445EA0"/>
<path d="M193.48 173.9C172.882 173.9 155.833 189.077 152.895 208.856C167.266 211.14 178.583 222.583 180.668 237.019C200.159 226.718 216.464 211.196 227.711 192.307C220.365 181.216 207.779 173.9 193.48 173.9Z" fill="#445EA0"/>
<path d="M195.961 173.976C195.14 173.927 194.313 173.9 193.479 173.9C172.881 173.9 155.832 189.077 152.894 208.856C154.425 209.1 155.919 209.453 157.373 209.897C161.456 191.206 176.81 176.733 195.961 173.976Z" fill="#293D7C"/>
<path d="M147.615 208.433C138.818 208.433 130.82 211.839 124.855 217.397C118.89 211.838 110.892 208.433 102.095 208.433C85.2813 208.433 71.3726 220.857 69.041 237.025C85.7051 245.833 104.695 250.827 124.855 250.827C145.015 250.827 164.005 245.833 180.669 237.025C178.337 220.857 164.429 208.433 147.615 208.433Z" fill="#293D7C"/>
</g>
<defs>
<clipPath id="clip0">
<rect width="250" height="250" fill="white"/>
</clipPath>
<clipPath id="clip1">
<rect width="207" height="207" fill="white" transform="translate(19 8)"/>
</clipPath>
</defs>
</svg>
