<svg width="45" height="39" viewBox="0 0 45 39" fill="none" xmlns="http://www.w3.org/2000/svg">
<path d="M30.4847 1.37087C30.2378 0.767508 29.6345 0.328613 28.9762 0.328613H28.9488C28.2906 0.328613 27.7146 0.740017 27.4404 1.34338L19.2672 19.6371L12.328 2.71475C12.0812 2.0839 11.4778 1.69999 10.8196 1.69999H10.7922C10.1339 1.69999 9.55798 2.05651 9.28375 2.65996L0.150588 23.0656C-0.233421 23.8884 0.150588 24.8758 0.973395 25.2323C1.7962 25.6163 2.78357 25.2323 3.14009 24.4095L5.08743 20.076H15.8662L17.4021 23.7786L11.8071 36.3402C11.423 37.163 11.8071 38.1503 12.6299 38.5069C13.4527 38.8634 14.44 38.5069 14.7966 37.6841L18.1701 30.2239H38.7676L41.812 37.6566C42.0863 38.2874 42.6897 38.6713 43.348 38.6713C43.5674 38.6713 43.7594 38.6164 43.9788 38.5342C44.829 38.1776 45.213 37.2177 44.8839 36.3675L30.4847 1.37087ZM6.59588 16.7848L10.7373 7.48703L14.5496 16.7848H6.59588ZM19.6236 26.9328L28.8665 6.22543L37.3688 26.9328H19.6236Z" fill="#B7B7B7"/>
</svg>
