<svg width="56" height="56" viewBox="0 0 56 56" fill="none" xmlns="http://www.w3.org/2000/svg">
<circle cx="28" cy="28" r="26" stroke="#666666" stroke-width="4"/>
<path d="M18.1529 39C17.9929 39 17.8429 38.94 17.7029 38.82C17.5829 38.68 17.5229 38.53 17.5229 38.37C17.5229 38.25 17.5329 38.16 17.5529 38.1L24.6029 18.84C24.6629 18.6 24.7929 18.4 24.9929 18.24C25.1929 18.08 25.4529 18 25.7729 18H30.2129C30.5329 18 30.7929 18.08 30.9929 18.24C31.1929 18.4 31.3229 18.6 31.3829 18.84L38.4029 38.1L38.4629 38.37C38.4629 38.53 38.3929 38.68 38.2529 38.82C38.1329 38.94 37.9829 39 37.8029 39H34.1129C33.6329 39 33.3129 38.79 33.1529 38.37L31.9829 35.31H23.9729L22.8329 38.37C22.6729 38.79 22.3429 39 21.8429 39H18.1529ZM30.7829 30.99L27.9929 23.07L25.2029 30.99H30.7829Z" fill="#666666"/>
<circle cx="37.5" cy="17.5" r="2.5" fill="#666666"/>
</svg>
