<svg width="50" height="52" viewBox="0 0 50 52" fill="none" xmlns="http://www.w3.org/2000/svg">
<path d="M18.3888 33.2L18.0188 36.6947C17.9889 36.9767 18.0801 37.2581 18.2699 37.4689C18.4595 37.6797 18.7297 37.8 19.0134 37.8H29.5873C29.8708 37.8 30.1411 37.6796 30.3308 37.4689C30.5205 37.2581 30.6117 36.9767 30.5819 36.6947L30.2119 33.2H43.3828C45.4328 33.2 47.1005 31.5323 47.1005 29.4824V3.71765C47.1003 1.66768 45.4325 0 43.3827 0H4.41784C2.36788 0 0.700195 1.66768 0.700195 3.71765V29.4824C0.700195 31.5323 2.36788 33.2 4.41784 33.2H18.3888ZM28.4757 35.8H20.1247L20.4 33.2H28.2003L28.4757 35.8ZM4.41784 2.0001H43.3827C44.3298 2.0001 45.1002 2.77053 45.1002 3.71765V26.4H2.70029V3.71765C2.70029 2.77053 3.47073 2.0001 4.41784 2.0001ZM2.70029 29.4824V28.4H45.1001V29.4824C45.1001 30.4295 44.3297 31.1999 43.3826 31.1999H4.41784C3.47073 31.1999 2.70029 30.4295 2.70029 29.4824Z" fill="#666666"/>
<path d="M43.3547 44.5189C43.536 44.2202 43.5484 43.8486 43.3872 43.5386L41.412 39.7385C41.2399 39.4074 40.8979 39.1997 40.5246 39.1997H7.27503C6.90195 39.1997 6.5598 39.4074 6.38766 39.7385L4.41249 43.5386C4.25142 43.8486 4.26369 44.2202 4.44503 44.5189C4.62637 44.8176 4.95052 44.9999 5.29987 44.9999H42.4998C42.8492 45 43.1733 44.8176 43.3547 44.5189ZM6.94675 42.9999L7.88226 41.1999H39.9173L40.8529 42.9999H6.94675Z" fill="#666666"/>
<path d="M45.1 46.7998H43.4999C41.184 46.7998 39.2998 48.6839 39.2998 50.9999C39.2998 51.5522 39.7476 51.9999 40.2999 51.9999H48.2998C48.8521 51.9999 49.2999 51.5522 49.2999 50.9999C49.3 48.684 47.4159 46.7998 45.1 46.7998ZM41.5407 49.9998C41.9054 49.2882 42.6468 48.7999 43.4999 48.7999H45.1C45.9531 48.7999 46.6944 49.2882 47.0592 49.9998H41.5407Z" fill="#666666"/>
</svg>
