<svg width="61" height="61" viewBox="0 0 61 61" fill="none" xmlns="http://www.w3.org/2000/svg">
<path d="M44.3373 28.8848H43.1367V23.0918C43.1367 23.0554 43.1309 23.0192 43.1261 22.9824C43.1242 22.7523 43.0511 22.5264 42.8936 22.3477L33.2533 11.3351C33.2504 11.3322 33.2476 11.3312 33.2456 11.3284C33.1882 11.2643 33.1212 11.2106 33.0504 11.1647C33.0294 11.1503 33.0082 11.1386 32.9863 11.1264C32.9249 11.0931 32.8598 11.0651 32.7928 11.045C32.7747 11.0402 32.7583 11.0328 32.7402 11.0278C32.6674 11.0108 32.5918 11 32.5151 11H8.82305C7.74118 11 6.86228 11.8799 6.86228 12.9609V28.8843H5.66192C4.11427 28.8843 2.85938 30.1387 2.85938 31.6866V46.2601C2.85938 47.8073 4.11427 49.0629 5.66192 49.0629H6.86237V59.0391C6.86237 60.12 7.74126 61 8.82313 61H41.176C42.2568 61 43.1367 60.1201 43.1367 59.0391V49.0629H44.3374C45.8846 49.0629 47.1397 47.8078 47.1397 46.2606V31.6871C47.1396 30.1392 45.8845 28.8848 44.3373 28.8848ZM8.82305 12.9612H31.5347V22.993C31.5347 23.5347 31.9742 23.9734 32.5151 23.9734H41.1759V28.8851H8.82305V12.9612ZM23.5565 39.5846C21.1236 38.7368 19.5375 37.3907 19.5375 35.2623C19.5375 32.7637 21.6227 30.852 25.0771 30.852C26.7277 30.852 27.9435 31.1996 28.8138 31.5906L28.0747 34.2628C27.4877 33.9799 26.4462 33.5672 25.0107 33.5672C23.5774 33.5672 22.8824 34.219 22.8824 34.9794C22.8824 35.9142 23.7088 36.3266 25.5988 37.0431C28.1824 37.999 29.3997 39.3452 29.3997 41.4084C29.3997 43.8638 27.5098 45.949 23.4903 45.949C21.8186 45.949 20.168 45.5139 19.3416 45.0582L20.0156 42.321C20.9061 42.7776 22.2739 43.2334 23.6864 43.2334C25.207 43.2334 26.0095 42.6039 26.0095 41.6479C26.0105 40.7358 25.3152 40.2145 23.5565 39.5846ZM7.28447 45.7321V31.2862C8.30698 31.1127 9.74025 30.9817 11.7604 30.9817C13.8016 30.9817 15.2568 31.3731 16.2353 32.1547C17.1688 32.8941 17.798 34.1103 17.798 35.5435C17.798 36.978 17.3213 38.1944 16.4519 39.0196C15.3222 40.0838 13.6496 40.561 11.6958 40.561C11.2608 40.561 10.8693 40.5401 10.5649 40.4964V45.7321H7.28447ZM41.176 58.5084H8.82305V49.0629H41.1759V58.5084H41.176ZM42.1515 43.9929C40.6092 45.2754 38.2645 45.8838 35.396 45.8838C33.6804 45.8838 32.4645 45.7752 31.6382 45.6655V31.2862C32.8551 31.0907 34.4406 30.9817 36.1132 30.9817C38.8936 30.9817 40.6978 31.4817 42.1085 32.5461C43.6288 33.6749 44.5854 35.4784 44.5854 38.0631C44.5853 40.866 43.5628 42.7996 42.1515 43.9929Z" fill="#6FCF97"/>
<path d="M36.4603 33.5234C35.7211 33.5234 35.2448 33.5897 34.9609 33.6543V43.2331C35.2443 43.2992 35.7001 43.2992 36.1127 43.2992C39.1104 43.3203 41.0659 41.6698 41.0659 38.1723C41.0865 35.1314 39.3057 33.5234 36.4603 33.5234Z" fill="#6FCF97"/>
<path d="M14.5212 35.6315C14.5212 34.2839 13.586 33.4805 11.9355 33.4805C11.2625 33.4805 10.8055 33.5467 10.5664 33.6114V37.9336C10.8498 37.9997 11.1973 38.0208 11.6742 38.0208C13.4336 38.0208 14.5212 37.1304 14.5212 35.6315Z" fill="#6FCF97"/>
<path d="M43 36C52.9411 36 61 27.9411 61 18C61 8.05888 52.9411 0 43 0C33.0589 0 25 8.05888 25 18C25 27.9411 33.0589 36 43 36Z" fill="#1FC056"/>
<path d="M60.6106 4.39615C60.0903 3.87576 59.2467 3.87576 58.7262 4.39615L42.7625 20.3601L36.6263 14.2239C36.1059 13.7035 35.2623 13.7035 34.7418 14.2239C34.2215 14.7442 34.2215 15.5878 34.7418 16.1082L41.8203 23.1865C42.3404 23.7069 43.1847 23.7065 43.7047 23.1865L60.6106 6.28055C61.131 5.76019 61.131 4.91654 60.6106 4.39615Z" fill="white"/>
</svg>
