<svg width="50" height="50" viewBox="0 0 50 50" fill="none" xmlns="http://www.w3.org/2000/svg">
<path d="M44.3378 17.8848H43.1372V12.0918C43.1372 12.0554 43.1314 12.0192 43.1266 11.9824C43.1247 11.7523 43.0516 11.5264 42.8941 11.3477L33.2538 0.335057C33.2509 0.332243 33.2481 0.331245 33.2461 0.328431C33.1887 0.264252 33.1217 0.210602 33.0509 0.164669C33.0299 0.150327 33.0087 0.138616 32.9868 0.126361C32.9254 0.0931371 32.8603 0.065087 32.7933 0.0450253C32.7752 0.0402142 32.7588 0.0327705 32.7407 0.0277777C32.6679 0.0108024 32.5923 0 32.5156 0H8.82353C7.74166 0 6.86276 0.8799 6.86276 1.96087V17.8843H5.66241C4.11476 17.8843 2.85986 19.1387 2.85986 20.6866V35.2601C2.85986 36.8073 4.11476 38.0629 5.66241 38.0629H6.86285V48.0391C6.86285 49.12 7.74175 50 8.82362 50H41.1765C42.2573 50 43.1372 49.1201 43.1372 48.0391V38.0629H44.3379C45.8851 38.0629 47.1402 36.8078 47.1402 35.2606V20.6871C47.1401 19.1392 45.885 17.8848 44.3378 17.8848ZM8.82353 1.96123H31.5352V11.993C31.5352 12.5347 31.9747 12.9734 32.5156 12.9734H41.1764V17.8851H8.82353V1.96123ZM23.557 28.5846C21.1241 27.7368 19.538 26.3907 19.538 24.2623C19.538 21.7637 21.6232 19.852 25.0776 19.852C26.7282 19.852 27.944 20.1996 28.8143 20.5906L28.0752 23.2628C27.4882 22.9799 26.4467 22.5672 25.0112 22.5672C23.5779 22.5672 22.8829 23.219 22.8829 23.9794C22.8829 24.9142 23.7093 25.3266 25.5993 26.0431C28.1829 26.999 29.4002 28.3452 29.4002 30.4084C29.4002 32.8638 27.5103 34.949 23.4908 34.949C21.8191 34.949 20.1685 34.5139 19.3421 34.0582L20.0161 31.321C20.9066 31.7776 22.2744 32.2334 23.6869 32.2334C25.2075 32.2334 26.01 31.6039 26.01 30.6479C26.011 29.7358 25.3157 29.2145 23.557 28.5846ZM7.28496 34.7321V20.2862C8.30747 20.1127 9.74074 19.9817 11.7609 19.9817C13.8021 19.9817 15.2573 20.3731 16.2358 21.1547C17.1693 21.8941 17.7985 23.1103 17.7985 24.5435C17.7985 25.978 17.3218 27.1944 16.4524 28.0196C15.3227 29.0838 13.6501 29.561 11.6963 29.561C11.2613 29.561 10.8698 29.5401 10.5654 29.4964V34.7321H7.28496ZM41.1765 47.5084H8.82353V38.0629H41.1764V47.5084H41.1765ZM42.152 32.9929C40.6097 34.2754 38.265 34.8838 35.3965 34.8838C33.6809 34.8838 32.465 34.7752 31.6387 34.6655V20.2862C32.8556 20.0907 34.4411 19.9817 36.1137 19.9817C38.8941 19.9817 40.6983 20.4817 42.109 21.5461C43.6293 22.6749 44.5859 24.4784 44.5859 27.0631C44.5858 29.866 43.5633 31.7996 42.152 32.9929Z" fill="#A7A7A7"/>
<path d="M36.4613 22.5234C35.7221 22.5234 35.2458 22.5897 34.9619 22.6543V32.2331C35.2453 32.2992 35.7011 32.2992 36.1137 32.2992C39.1114 32.3203 41.0669 30.6698 41.0669 27.1723C41.0875 24.1314 39.3067 22.5234 36.4613 22.5234Z" fill="#A7A7A7"/>
<path d="M14.5202 24.6315C14.5202 23.2839 13.585 22.4805 11.9345 22.4805C11.2615 22.4805 10.8045 22.5467 10.5654 22.6114V26.9336C10.8488 26.9997 11.1963 27.0208 11.6732 27.0208C13.4326 27.0208 14.5202 26.1304 14.5202 24.6315Z" fill="#A7A7A7"/>
</svg>
