<svg width="65" height="58" viewBox="0 0 65 58" fill="none" xmlns="http://www.w3.org/2000/svg">
<path d="M43.2254 25.8848H42.0008V20.0918C42.0008 20.0554 41.9949 20.0192 41.99 19.9824C41.9881 19.7523 41.9135 19.5264 41.7528 19.3477L31.9198 8.33506C31.9168 8.33224 31.9139 8.33125 31.9119 8.32843C31.8533 8.26425 31.785 8.2106 31.7127 8.16467C31.6914 8.15033 31.6698 8.13862 31.6474 8.12636C31.5848 8.09314 31.5184 8.06509 31.4501 8.04503C31.4315 8.04021 31.4149 8.03277 31.3964 8.02778C31.3221 8.0108 31.245 8 31.1668 8H7.00091C5.8974 8 5.00092 8.8799 5.00092 9.96087V25.8843H3.77657C2.19796 25.8843 0.917969 27.1387 0.917969 28.6866V43.2601C0.917969 44.8073 2.19796 46.0629 3.77657 46.0629H5.00101V56.0391C5.00101 57.12 5.89749 58 7.001 58H40.0009C41.1034 58 42.0009 57.1201 42.0009 56.0391V46.0629H43.2255C44.8036 46.0629 46.0839 44.8078 46.0839 43.2606V28.6871C46.0838 27.1392 44.8035 25.8848 43.2254 25.8848ZM7.00091 9.96123H30.1668V19.993C30.1668 20.5347 30.6151 20.9734 31.1668 20.9734H40.0008V25.8851H7.00091V9.96123ZM31.6756 34.3868V37.0796H26.3143V42.9671H22.9244V28.3264H32.0527V31.0421H26.3143V34.3873H31.6756V34.3868ZM19.9989 28.3264V42.9676H16.6085V28.3264H19.9989ZM3.33666 31.1067V28.3264H14.8129V31.1067H10.7365V42.9676H7.34721V31.1067H3.33666ZM40.0009 55.5084H7.00091V46.0629H40.0008V55.5084H40.0009ZM43.7308 31.0421H37.9911V34.3873H43.3534V37.0806H37.9911V42.9677H34.6024V28.3264H43.7308V31.0421Z" fill="#6FCF97"/>
<path d="M47 36C56.9411 36 65 27.9411 65 18C65 8.05888 56.9411 0 47 0C37.0589 0 29 8.05888 29 18C29 27.9411 37.0589 36 47 36Z" fill="#1FC056"/>
<path d="M64.6106 4.39615C64.0903 3.87576 63.2467 3.87576 62.7262 4.39615L46.7625 20.3601L40.6263 14.2239C40.1059 13.7035 39.2623 13.7035 38.7418 14.2239C38.2215 14.7442 38.2215 15.5878 38.7418 16.1082L45.8203 23.1865C46.3404 23.7069 47.1847 23.7065 47.7047 23.1865L64.6106 6.28055C65.131 5.76019 65.131 4.91654 64.6106 4.39615Z" fill="white"/>
</svg>
