<svg width="47" height="50" viewBox="0 0 47 50" fill="none" xmlns="http://www.w3.org/2000/svg">
<path d="M43.2247 17.8848H42.0001V12.0918C42.0001 12.0554 41.9942 12.0192 41.9893 11.9824C41.9874 11.7523 41.9128 11.5264 41.7521 11.3477L31.9191 0.335057C31.9161 0.332243 31.9132 0.331245 31.9112 0.328431C31.8526 0.264252 31.7843 0.210602 31.712 0.164669C31.6907 0.150327 31.6691 0.138616 31.6467 0.126361C31.5841 0.0931371 31.5177 0.065087 31.4494 0.0450253C31.4308 0.0402142 31.4142 0.0327705 31.3957 0.0277777C31.3214 0.0108024 31.2443 0 31.1661 0H7.00018C5.89667 0 5.00019 0.8799 5.00019 1.96087V17.8843H3.77584C2.19723 17.8843 0.917236 19.1387 0.917236 20.6866V35.2601C0.917236 36.8073 2.19723 38.0629 3.77584 38.0629H5.00028V48.0391C5.00028 49.12 5.89676 50 7.00027 50H40.0002C41.1027 50 42.0002 49.1201 42.0002 48.0391V38.0629H43.2248C44.8029 38.0629 46.0832 36.8078 46.0832 35.2606V20.6871C46.0831 19.1392 44.8028 17.8848 43.2247 17.8848ZM7.00018 1.96123H30.1661V11.993C30.1661 12.5347 30.6144 12.9734 31.1661 12.9734H40.0001V17.8851H7.00018V1.96123ZM31.6749 26.3868V29.0796H26.3136V34.9671H22.9237V20.3264H32.052V23.0421H26.3136V26.3873H31.6749V26.3868ZM19.9982 20.3264V34.9676H16.6078V20.3264H19.9982ZM3.33593 23.1067V20.3264H14.8122V23.1067H10.7358V34.9676H7.34648V23.1067H3.33593ZM40.0002 47.5084H7.00018V38.0629H40.0001V47.5084H40.0002ZM43.7301 23.0421H37.9904V26.3873H43.3527V29.0806H37.9904V34.9677H34.6017V20.3264H43.7301V23.0421Z" fill="#A7A7A7"/>
</svg>
