<svg width="60" height="61" viewBox="0 0 60 61" fill="none" xmlns="http://www.w3.org/2000/svg">
<path d="M41.6769 28.8848H40.5483V23.0918C40.5483 23.0556 40.543 23.0193 40.5384 22.9827C40.5366 22.7526 40.4677 22.5267 40.3197 22.3476L31.258 11.3353C31.2552 11.3325 31.2525 11.3315 31.2507 11.3285C31.1967 11.2643 31.1338 11.2108 31.067 11.1647C31.0474 11.1506 31.0275 11.1389 31.0069 11.1266C30.9493 11.0932 30.888 11.0654 30.825 11.0452C30.8079 11.0402 30.7926 11.0328 30.7756 11.0281C30.7071 11.0108 30.636 11 30.5641 11H8.29339C7.27648 11 6.4503 11.8799 6.4503 12.9608V28.8842H5.32187C3.86711 28.8842 2.6875 30.1387 2.6875 31.6868V46.2605C2.6875 47.8078 3.86711 49.0629 5.32187 49.0629H6.4503V59.0393C6.4503 60.1203 7.27648 61 8.29339 61H38.7051C39.7212 61 40.5482 60.1203 40.5482 59.0393V49.063H41.6768C43.1311 49.063 44.3109 47.8078 44.3109 46.2606V31.6874C44.311 30.1392 43.1312 28.8848 41.6769 28.8848ZM8.29339 12.9613H29.6425V22.9934C29.6425 23.5349 30.0554 23.9737 30.5641 23.9737H38.7052V28.8854H8.29339V12.9613ZM27.7138 31.3941V46.0346H24.5895V31.3941H27.7138ZM12.541 34.1309V31.3941H22.5253V33.3061L16.1143 43.2113V43.2974H22.6278V46.0346H11.9286V44.253L18.4833 34.2182V34.1309H12.541V34.1309ZM38.7052 58.5083H8.29339V49.063H38.7051V58.5083H38.7052ZM39.026 39.3231C37.9644 40.3874 36.3923 40.8645 34.5544 40.8645C34.1451 40.8645 33.7786 40.8435 33.4925 40.7999V46.0345H30.4096V31.5896C31.369 31.4151 32.7163 31.2854 34.6152 31.2854C36.5353 31.2854 37.9025 31.6761 38.8221 32.4582C39.6996 33.1966 40.2918 34.4132 40.2918 35.847C40.2921 37.2806 39.8427 38.4969 39.026 39.3231Z" fill="#6FCF97"/>
<path d="M34.7792 33.7812C34.1448 33.7812 33.7158 33.8466 33.4922 33.9122V38.2344C33.7567 38.2995 34.0844 38.3216 34.5339 38.3216C36.1871 38.3216 37.2086 37.4302 37.2086 35.9323C37.2087 34.5853 36.3307 33.7812 34.7792 33.7812Z" fill="#6FCF97"/>
<path d="M42 36C51.9411 36 60 27.9411 60 18C60 8.05888 51.9411 0 42 0C32.0589 0 24 8.05888 24 18C24 27.9411 32.0589 36 42 36Z" fill="#1FC056"/>
<path d="M59.6106 4.3942C59.0903 3.87381 58.2467 3.87381 57.7262 4.3942L41.7625 20.3581L35.6263 14.2219C35.1059 13.7015 34.2623 13.7015 33.7418 14.2219C33.2215 14.7422 33.2215 15.5858 33.7418 16.1062L40.8203 23.1845C41.3404 23.7049 42.1847 23.7045 42.7047 23.1845L59.6106 6.2786C60.131 5.75824 60.131 4.91459 59.6106 4.3942Z" fill="white"/>
</svg>
