<svg width="47" height="50" viewBox="0 0 47 50" fill="none" xmlns="http://www.w3.org/2000/svg">
<path d="M41.6769 17.8848H40.5483V12.0918C40.5483 12.0556 40.543 12.0193 40.5384 11.9827C40.5366 11.7526 40.4677 11.5267 40.3197 11.3476L31.258 0.335315C31.2552 0.332488 31.2525 0.331485 31.2507 0.328475C31.1967 0.264276 31.1338 0.210837 31.067 0.164694C31.0474 0.15065 31.0275 0.138886 31.0069 0.126575C30.9493 0.0931987 30.888 0.065385 30.825 0.0452315C30.8079 0.0402159 30.7926 0.0328293 30.7756 0.0280873C30.7071 0.0107607 30.636 0 30.5641 0H8.29339C7.27648 0 6.4503 0.879916 6.4503 1.96082V17.8842H5.32187C3.86711 17.8842 2.6875 19.1387 2.6875 20.6868V35.2605C2.6875 36.8078 3.86711 38.0629 5.32187 38.0629H6.4503V48.0393C6.4503 49.1203 7.27648 50 8.29339 50H38.7051C39.7212 50 40.5482 49.1203 40.5482 48.0393V38.063H41.6768C43.1311 38.063 44.3109 36.8078 44.3109 35.2606V20.6874C44.311 19.1392 43.1312 17.8848 41.6769 17.8848ZM8.29339 1.96128H29.6425V11.9934C29.6425 12.5349 30.0554 12.9737 30.5641 12.9737H38.7052V17.8854H8.29339V1.96128ZM27.7138 20.3941V35.0346H24.5895V20.3941H27.7138ZM12.541 23.1309V20.3941H22.5253V22.3061L16.1143 32.2113V32.2974H22.6278V35.0346H11.9286V33.253L18.4833 23.2182V23.1309H12.541V23.1309ZM38.7052 47.5083H8.29339V38.063H38.7051V47.5083H38.7052ZM39.026 28.3231C37.9644 29.3874 36.3923 29.8645 34.5544 29.8645C34.1451 29.8645 33.7786 29.8435 33.4925 29.7999V35.0345H30.4096V20.5896C31.369 20.4151 32.7163 20.2854 34.6152 20.2854C36.5353 20.2854 37.9025 20.6761 38.8221 21.4582C39.6996 22.1966 40.2918 23.4132 40.2918 24.847C40.2921 26.2806 39.8427 27.4969 39.026 28.3231Z" fill="#A7A7A7"/>
<path d="M34.7792 22.7812C34.1448 22.7812 33.7158 22.8466 33.4922 22.9122V27.2344C33.7567 27.2995 34.0844 27.3216 34.5339 27.3216C36.1871 27.3216 37.2086 26.4302 37.2086 24.9323C37.2087 23.5853 36.3307 22.7812 34.7792 22.7812Z" fill="#A7A7A7"/>
</svg>
